<svg xmlns="http://www.w3.org/2000/svg" viewBox="0 0 800 560" role="img" aria-labelledby="title">
  <title>Abstract product site preview</title>
  <defs>
    <linearGradient id="bg1" x1="0" x2="1" y1="0" y2="1">
      <stop offset="0" stop-color="#121722"/>
      <stop offset="1" stop-color="#0a0d14"/>
    </linearGradient>
    <linearGradient id="a1" x1="0" x2="1" y1="0" y2="1">
      <stop offset="0" stop-color="#ff8a1d"/>
      <stop offset="1" stop-color="#ffd16a"/>
    </linearGradient>
    <linearGradient id="c1" x1="0" x2="1" y1="0" y2="1">
      <stop offset="0" stop-color="#52e7d8"/>
      <stop offset="1" stop-color="#95fff6"/>
    </linearGradient>
  </defs>
  <rect width="800" height="560" rx="34" fill="url(#bg1)"/>
  <rect x="42" y="42" width="716" height="476" rx="28" fill="#0d1118" stroke="rgba(255,255,255,.08)"/>
  <rect x="74" y="78" width="288" height="372" rx="24" fill="#121724"/>
  <rect x="102" y="112" width="152" height="16" rx="8" fill="url(#a1)"/>
  <rect x="102" y="144" width="210" height="14" rx="7" fill="#2a3345"/>
  <rect x="102" y="172" width="174" height="14" rx="7" fill="#202938"/>
  <rect x="102" y="236" width="228" height="160" rx="22" fill="#0a0d13"/>
  <path d="M124 348 C156 302 202 292 242 316 C278 338 312 332 338 310" fill="none" stroke="url(#c1)" stroke-width="8" stroke-linecap="round"/>
  <circle cx="244" cy="254" r="58" fill="none" stroke="url(#a1)" stroke-width="14"/>
  <rect x="394" y="78" width="332" height="212" rx="24" fill="#121724"/>
  <rect x="424" y="110" width="192" height="16" rx="8" fill="#232c3a"/>
  <rect x="424" y="146" width="268" height="112" rx="20" fill="#0a0d13"/>
  <path d="M446 230 C512 162 570 164 626 206 C654 226 674 232 694 226" fill="none" stroke="url(#a1)" stroke-width="9" stroke-linecap="round"/>
  <rect x="394" y="320" width="154" height="130" rx="22" fill="#121724"/>
  <rect x="572" y="320" width="154" height="130" rx="22" fill="#121724"/>
  <rect x="422" y="348" width="80" height="80" rx="20" fill="url(#a1)"/>
  <rect x="600" y="348" width="80" height="80" rx="20" fill="url(#c1)"/>
</svg>
