<svg xmlns="http://www.w3.org/2000/svg" viewBox="0 0 800 560" role="img" aria-labelledby="title">
  <title>Abstract creative portfolio preview</title>
  <defs>
    <linearGradient id="bg2" x1="0" x2="1" y1="0" y2="1">
      <stop offset="0" stop-color="#13161f"/>
      <stop offset="1" stop-color="#0b0d13"/>
    </linearGradient>
    <linearGradient id="a2" x1="0" x2="1" y1="0" y2="1">
      <stop offset="0" stop-color="#ff8a1d"/>
      <stop offset="1" stop-color="#ffcf65"/>
    </linearGradient>
    <linearGradient id="c2" x1="0" x2="1" y1="0" y2="1">
      <stop offset="0" stop-color="#52e7d8"/>
      <stop offset="1" stop-color="#8df7f0"/>
    </linearGradient>
  </defs>
  <rect width="800" height="560" rx="34" fill="url(#bg2)"/>
  <rect x="48" y="48" width="704" height="464" rx="28" fill="#0d1017" stroke="rgba(255,255,255,.08)"/>
  <circle cx="250" cy="246" r="132" fill="none" stroke="#242a36" stroke-width="26"/>
  <circle cx="250" cy="246" r="132" fill="none" stroke="url(#a2)" stroke-width="26" stroke-dasharray="460 220" stroke-linecap="round"/>
  <circle cx="250" cy="246" r="62" fill="#0b0d13" stroke="url(#c2)" stroke-width="12"/>
  <rect x="430" y="88" width="260" height="140" rx="24" fill="#131824"/>
  <rect x="460" y="120" width="138" height="16" rx="8" fill="url(#a2)"/>
  <rect x="460" y="152" width="190" height="14" rx="7" fill="#263040"/>
  <rect x="460" y="180" width="164" height="14" rx="7" fill="#1f2836"/>
  <rect x="430" y="254" width="260" height="176" rx="24" fill="#131824"/>
  <rect x="462" y="288" width="196" height="16" rx="8" fill="#253043"/>
  <rect x="462" y="324" width="86" height="86" rx="22" fill="url(#a2)"/>
  <rect x="572" y="324" width="86" height="86" rx="22" fill="url(#c2)"/>
  <rect x="120" y="420" width="220" height="18" rx="9" fill="#232c3a"/>
  <rect x="120" y="452" width="176" height="14" rx="7" fill="#1d2430"/>
</svg>
